<mxfile host="app.diagrams.net" modified="2023-09-25T02:17:23.450Z" agent="Mozilla/5.0 (Windows NT 10.0; Win64; x64) AppleWebKit/537.36 (KHTML, like Gecko) Chrome/104.0.0.0 Safari/537.36" version="21.6.2" etag="2_1NTK3aNeRHW8cN-InU" type="github">
  <diagram name="第 1 页" id="BBAZDnbTxW1_nCJ7It1o">
    <mxGraphModel>
      <root>
        <mxCell id="0" />
        <mxCell id="1" parent="0" />
      </root>
    </mxGraphModel>
  </diagram>
</mxfile>
